<svg width="96" height="96" viewBox="0 0 96 96" fill="none" xmlns="http://www.w3.org/2000/svg">
  <rect x="6" y="6" width="84" height="84" rx="18" fill="#233A7A"/>
  <path d="M62.312 24.4C71.175 24.4 78.36 31.337 78.36 39.896C78.36 48.455 71.175 55.392 62.312 55.392C60.931 55.392 59.592 55.224 58.317 54.907L47.022 63.947C45.854 64.883 44.152 63.905 44.347 62.414L45.392 54.427C38.999 51.916 34.456 46.23 34.456 39.896C34.456 31.337 41.641 24.4 50.504 24.4H62.312Z" fill="white"/>
  <path d="M42.927 35.82C34.892 35.82 28.378 42.111 28.378 49.871C28.378 53.148 29.538 56.163 31.48 58.553L27.777 67.32C27.188 68.715 28.607 70.135 30.003 69.549L39.602 65.52C40.681 65.773 41.793 65.91 42.927 65.91C50.963 65.91 57.476 59.619 57.476 51.859C57.476 44.099 50.963 37.808 42.927 37.808V35.82Z" fill="#F2E90B"/>
  <path d="M67.495 20.138C69.514 16.673 73.226 14.32 77.503 14.32C76.074 18.806 72.843 22.509 68.643 24.716L67.495 20.138Z" fill="white"/>
</svg>
